<svg version="1.1" xmlns="http://www.w3.org/2000/svg" xmlns:xlink="http://www.w3.org/1999/xlink" x="0px" y="0px"
     viewBox="0 222 612 353" enable-background="new 0 222 612 353" xml:space="preserve">
<path fill="#D14600" d="M602.8,461.6V231.7H66.1v193.8l0,0c0,4.1-1.5,15.3-4.1,22.9C57,462.6,10.7,568,10.7,568
	s138.9-94.1,144.5-97.2c10.7-6.1,18.3-7.6,29.5-8.1h418.2v-1.1H602.8z"/>
    <polygon fill="#FFFFFF" points="181.6,340.5 161.8,287.1 141.9,287.1 178.1,373.1 184.2,373.1 220.8,287.1 202,287.1 "/>
    <polygon fill="#FFFFFF" points="236,371.6 304.7,371.6 304.7,354.3 254.9,354.3 254.9,318.7 291.5,318.7 291.5,301.9 254.9,301.9
	254.9,274.9 305.7,274.9 305.7,258.1 236,258.1 "/>
    <polygon fill="#FFFFFF" points="485.8,307.5 520.4,257.6 499.1,257.6 460.9,313.6 460.9,257.6 442.1,257.6 442.1,371.6 460.9,371.6
	460.9,340.5 473.6,322.2 503.6,371.6 524.5,371.6 "/>
    <path fill="#FFFFFF" d="M384.1,330.9c0,0.5,0,1.5,0,2v0.5c0,13.2-10.7,23.9-23.9,23.9s-23.9-10.7-23.9-23.9
	c0-13.2,10.7-23.9,23.9-23.9h2.5v-16.3h-2.5c-5.1,0-9.7,1-14.2,2.5c-0.5-1-0.5-2.5-0.5-3.6c0-7.1,6.1-13.2,13.2-13.2
	c3.6,0,7.1,1.5,9.2,4.1l0.5,0.5l11.2-11.2l-0.5-0.5c-5.6-5.6-12.7-8.6-20.9-8.6c-16.3,0-29.5,13.2-29.5,29.5c0,4.1,1,8.6,2.5,12.2
	c-7.6,7.1-12.2,17.3-12.2,28.5c0,22.4,18.3,40.2,40.2,40.2s39.7-17.8,40.2-40.2v-0.5c0-0.5,0-1.5,0-2v-21.4h24.9v-16.3h-40.7
	L384.1,330.9z"/>
    <path fill="#FFFFFF" d="M289.9,417.2c0,3.4-0.6,6.1-1.7,8.9s-2.8,4.5-4.5,6.1c-1.7,1.7-4.5,2.8-7.3,3.9c-2.8,0.6-5.6,1.1-8.9,1.1
	c-1.7,0-3.4,0-5.6,0s-3.9-0.6-5.6-0.6v-38c1.7-0.6,3.9-0.6,5.6-0.6c2.2,0,3.9,0,5.6,0c3.4,0,6.1,0.6,8.9,1.1c2.8,0.6,5,2.2,7.3,3.4
	c1.7,1.7,3.4,3.9,4.5,6.1C289.4,411,289.9,413.8,289.9,417.2z M264.3,431.1c0.6,0,1.1,0,1.7,0s1.7,0,2.8,0c5,0,8.4-1.1,10.6-3.9
	s3.4-5.6,3.4-10.1s-1.1-7.8-3.4-10.1c-2.2-2.2-6.1-3.4-10.6-3.4c-2.2,0-3.4,0-4.5,0V431.1z"/>
    <path fill="#FFFFFF" d="M307.8,397.6h7.3v39.1h-7.3V397.6z"/>
    <path fill="#FFFFFF" d="M353.1,402.7c-3.9,0-7.3,1.1-9.5,3.9s-3.4,6.1-3.4,10.6c0,2.2,0,3.9,0.6,5.6s1.1,3.4,2.2,4.5
	s2.2,2.2,3.9,2.8s3.4,1.1,5,1.1c1.1,0,2.2,0,3.4,0c1.1,0,1.7,0,2.2-0.6v-14h7.3v19c-1.1,0.6-2.8,0.6-5,1.1c-2.2,0.6-5,0.6-7.8,0.6
	s-5.6-0.6-7.8-1.1c-2.2-1.1-4.5-2.2-6.1-3.9c-1.7-1.7-2.8-3.9-3.9-6.1c-1.1-2.8-1.1-5.6-1.1-8.9s0.6-6.1,1.7-8.9s2.2-4.5,3.9-6.7
	c1.7-1.7,3.9-3.4,6.1-3.9c2.2-1.1,5-1.1,7.3-1.1c1.7,0,3.4,0,5,0.6c1.7,0,2.8,0.6,3.9,0.6c1.1,0.6,1.7,0.6,2.8,1.1
	c0.6,0.6,1.1,0.6,1.1,0.6l-2.2,5.6c-1.1-0.6-2.8-1.1-4.5-1.7C357,402.7,354.7,402.7,353.1,402.7z"/>
    <path fill="#FFFFFF" d="M383.8,397.1h7.3v39.1h-7.3V397.1z"/>
    <path fill="#FFFFFF" d="M438,397.1v6.1h-12.3v33h-7.3v-33h-12.3v-6.1H438z"/>
    <path fill="#FFFFFF" d="M476.5,436.2c-0.6-1.7-1.1-3.4-1.7-4.5c-0.6-1.7-1.1-2.8-1.7-4.5h-16.8c-0.6,1.7-1.1,3.4-1.7,4.5
	c-0.6,1.7-1.1,2.8-1.7,4.5h-7.3c1.7-4.5,2.8-7.8,3.9-11.7c1.1-3.4,2.8-6.7,3.9-10.1s2.2-6.1,3.9-8.9c1.1-2.8,2.2-5.6,3.9-8.4h6.7
	c1.1,2.8,2.8,5.6,3.9,8.4s2.8,6.1,3.9,8.9c1.1,3.4,2.8,6.7,3.9,10.1s2.8,7.3,4.5,11.7H476.5z M464.8,404.3c-1.1,2.2-1.7,4.5-2.8,7.3
	c-1.1,2.8-2.2,6.1-3.4,9.5h12.8c-1.1-3.4-2.2-6.7-3.4-9.5C466.5,408.8,465.3,406,464.8,404.3z"/>
    <path fill="#FFFFFF" d="M524,429.5v6.1h-24.6v-39.1h7.3v33H524z"/>
</svg>
